<svg width="125" height="62" viewBox="0 0 125 62" fill="none" xmlns="http://www.w3.org/2000/svg">
<path d="M10.7459 54.5951C10.2368 54.5951 9.72767 54.5708 9.21856 54.5223C8.70945 54.4739 8.2064 54.4072 7.70941 54.3223C7.49122 54.286 7.27303 54.2496 7.05484 54.2132C6.83665 54.189 6.61239 54.1769 6.38208 54.1769C5.87297 54.1769 5.37598 54.2678 4.89111 54.4496C4.40624 54.6314 3.90925 54.7223 3.40014 54.7223C2.69708 54.7223 2.20615 54.5284 1.92735 54.1405C1.66067 53.7526 1.46067 53.2496 1.32733 52.6314C1.16975 51.8798 1.01822 51.1222 0.872763 50.3585C0.739425 49.5949 0.600025 48.8373 0.454564 48.0857C0.418199 47.9403 0.400017 47.7887 0.400017 47.6311C0.400017 47.0614 0.606086 46.619 1.01822 46.3038C1.44248 45.9887 1.91523 45.8311 2.43646 45.8311C2.90921 45.8311 3.31529 45.9887 3.6547 46.3038C4.00623 46.619 4.3517 47.0129 4.6911 47.4857C5.03051 47.9584 5.41841 48.4312 5.85479 48.9039C6.30329 49.3646 6.86089 49.7524 7.52758 50.0676C8.2064 50.3828 9.05492 50.5404 10.0731 50.5404C10.6792 50.5404 11.2914 50.407 11.9096 50.1403C12.5399 49.8615 12.8551 49.3524 12.8551 48.613C12.8551 48.1039 12.7036 47.7099 12.4005 47.4311C12.1096 47.1402 11.752 46.916 11.3277 46.7584C10.9035 46.5887 10.4974 46.4493 10.1095 46.3402C8.83673 45.9644 7.60031 45.5401 6.40026 45.0674C5.20021 44.5825 4.11532 43.9825 3.14558 43.2673C2.18797 42.5521 1.4243 41.6612 0.854581 40.5945C0.28486 39.5278 0 38.2186 0 36.6671C0 34.873 0.418199 33.37 1.2546 32.1578C2.10312 30.9335 3.23044 30.0122 4.63656 29.394C6.04267 28.7637 7.58213 28.4485 9.25493 28.4485C9.75192 28.4485 10.2428 28.4728 10.7277 28.5213C11.2247 28.5698 11.7156 28.6546 12.2005 28.7758C12.6005 28.8728 13.0005 28.9819 13.4006 29.1031C13.8127 29.2122 14.2248 29.2668 14.637 29.2668C15.0976 29.2668 15.5097 29.1092 15.8734 28.794C16.237 28.4788 16.6674 28.3213 17.1643 28.3213C17.6735 28.3213 18.0795 28.4728 18.3826 28.7758C18.6977 29.0667 18.9462 29.4304 19.1281 29.8668C19.322 30.291 19.4796 30.7032 19.6008 31.1032L21.0554 35.7397C21.1403 36.0307 21.1827 36.2973 21.1827 36.5398C21.1827 37.1337 20.9706 37.6065 20.5463 37.958C20.122 38.3095 19.6251 38.4853 19.0553 38.4853C18.5341 38.4853 18.1462 38.352 17.8916 38.0853C17.6371 37.8065 17.3825 37.4671 17.128 37.0671C16.3158 35.8064 15.4067 34.7397 14.4006 33.8669C13.3945 32.9942 12.0793 32.5578 10.455 32.5578C9.86101 32.5578 9.31554 32.7093 8.81855 33.0124C8.33368 33.3154 8.09124 33.8003 8.09124 34.467C8.09124 35.0488 8.27307 35.5155 8.63672 35.867C9.01249 36.2064 9.461 36.4792 9.98223 36.6852C10.5035 36.8792 10.9883 37.0489 11.4368 37.1944C12.6126 37.5701 13.746 37.9944 14.837 38.4671C15.9279 38.9399 16.9037 39.5217 17.7644 40.2127C18.6371 40.9036 19.322 41.7521 19.819 42.7582C20.3281 43.7643 20.5827 44.9765 20.5827 46.3947C20.5827 47.7645 20.3039 48.9645 19.7463 49.9949C19.2008 51.0252 18.4614 51.8798 17.528 52.5586C16.5946 53.2374 15.54 53.7465 14.3642 54.086C13.1884 54.4254 11.9823 54.5951 10.7459 54.5951Z" fill="#E0E4F2"/>
<path d="M31.9286 26.7212C32.4256 26.7212 32.8074 26.8909 33.0741 27.2303C33.3529 27.5697 33.4923 27.9758 33.4923 28.4485V48.5948C33.4923 48.9464 33.5105 49.2918 33.5468 49.6312C33.5832 49.9585 33.7347 50.2555 34.0014 50.5222C34.3287 50.8495 34.6075 51.1161 34.8378 51.3222C35.0802 51.5162 35.2015 51.8798 35.2015 52.4132C35.2015 52.9586 35.0317 53.3708 34.6923 53.6496C34.3529 53.9284 33.9226 54.0678 33.4014 54.0678H25.4011C24.8798 54.0678 24.4495 53.9284 24.1101 53.6496C23.7707 53.3708 23.601 52.9586 23.601 52.4132C23.601 51.9525 23.6858 51.6192 23.8555 51.4131C24.0252 51.1949 24.2252 51.007 24.4556 50.8495C24.6859 50.6919 24.8859 50.4737 25.0556 50.1949C25.2253 49.904 25.3101 49.4494 25.3101 48.8312V34.0851C25.3101 33.5033 25.2132 33.079 25.0192 32.8124C24.8253 32.5457 24.595 32.3457 24.3283 32.2123C24.0737 32.0669 23.8495 31.9032 23.6555 31.7214C23.4616 31.5275 23.3646 31.2183 23.3646 30.7941C23.3646 30.3092 23.5222 29.9334 23.8373 29.6668C24.1525 29.4001 24.5101 29.188 24.9101 29.0304L28.9648 27.4485C29.4497 27.2545 29.9346 27.0848 30.4194 26.9394C30.9043 26.7939 31.4074 26.7212 31.9286 26.7212Z" fill="#E0E4F2"/>
<path d="M55.0386 42.0491C55.0386 43.1279 54.7174 43.9461 54.075 44.5037C53.4446 45.0613 52.6082 45.3401 51.5658 45.3401H44.2382C44.517 46.3826 45.014 47.2614 45.7292 47.9766C46.4443 48.6797 47.4747 49.0312 48.8202 49.0312C49.3536 49.0312 49.8809 48.9221 50.4021 48.7039C50.9354 48.4736 51.4324 48.2069 51.8931 47.9039C52.3658 47.6008 52.7779 47.3402 53.1295 47.122C53.481 46.8917 53.7477 46.7766 53.9295 46.7766C54.281 46.7766 54.5356 46.9038 54.6932 47.1584C54.8508 47.4008 54.9295 47.6796 54.9295 47.9948C54.9295 49.0979 54.6689 50.0676 54.1477 50.904C53.6386 51.7283 52.9598 52.4132 52.1112 52.9586C51.2748 53.5041 50.3536 53.9102 49.3475 54.1769C48.3535 54.4557 47.3717 54.5951 46.4019 54.5951C44.4988 54.5951 42.82 54.2011 41.3653 53.4132C39.9107 52.6253 38.7713 51.5222 37.947 50.104C37.1349 48.6736 36.7288 46.9948 36.7288 45.0674C36.7288 43.0067 37.1227 41.2127 37.9107 39.6854C38.7107 38.158 39.8562 36.9762 41.3472 36.1398C42.8381 35.2912 44.6261 34.867 46.711 34.867C48.1535 34.867 49.5051 35.1397 50.7657 35.6852C52.0385 36.2307 53.0689 37.0368 53.8568 38.1035C54.6447 39.1702 55.0386 40.4854 55.0386 42.0491ZM43.9109 42.54C43.9109 42.6734 43.9109 42.8067 43.9109 42.94H45.8019C46.2625 42.94 46.5777 42.837 46.7474 42.6309C46.9171 42.4127 47.0019 42.0855 47.0019 41.6491C47.0019 41.3582 46.9656 40.9763 46.8928 40.5036C46.8201 40.0308 46.6747 39.6066 46.4565 39.2308C46.2504 38.855 45.9474 38.6671 45.5473 38.6671C45.1837 38.6671 44.8928 38.8187 44.6746 39.1217C44.4564 39.4126 44.2927 39.7823 44.1836 40.2308C44.0746 40.6672 44.0018 41.0975 43.9655 41.5218C43.9291 41.9461 43.9109 42.2855 43.9109 42.54Z" fill="#E0E4F2"/>
<path d="M74.7849 42.0491C74.7849 43.1279 74.4637 43.9461 73.8212 44.5037C73.1909 45.0613 72.3545 45.3401 71.312 45.3401H63.9845C64.2633 46.3826 64.7603 47.2614 65.4754 47.9766C66.1906 48.6797 67.221 49.0312 68.5665 49.0312C69.0998 49.0312 69.6271 48.9221 70.1484 48.7039C70.6817 48.4736 71.1787 48.2069 71.6393 47.9039C72.1121 47.6008 72.5242 47.3402 72.8757 47.122C73.2273 46.8917 73.4939 46.7766 73.6758 46.7766C74.0273 46.7766 74.2819 46.9038 74.4394 47.1584C74.597 47.4008 74.6758 47.6796 74.6758 47.9948C74.6758 49.0979 74.4152 50.0676 73.894 50.904C73.3848 51.7283 72.706 52.4132 71.8575 52.9586C71.0211 53.5041 70.0999 53.9102 69.0938 54.1769C68.0998 54.4557 67.1179 54.5951 66.1482 54.5951C64.2451 54.5951 62.5662 54.2011 61.1116 53.4132C59.657 52.6253 58.5176 51.5222 57.6933 50.104C56.8811 48.6736 56.4751 46.9948 56.4751 45.0674C56.4751 43.0067 56.869 41.2127 57.6569 39.6854C58.457 38.158 59.6025 36.9762 61.0934 36.1398C62.5844 35.2912 64.3724 34.867 66.4573 34.867C67.8998 34.867 69.2514 35.1397 70.512 35.6852C71.7848 36.2307 72.8151 37.0368 73.603 38.1035C74.391 39.1702 74.7849 40.4854 74.7849 42.0491ZM63.6572 42.54C63.6572 42.6734 63.6572 42.8067 63.6572 42.94H65.5482C66.0088 42.94 66.324 42.837 66.4937 42.6309C66.6634 42.4127 66.7482 42.0855 66.7482 41.6491C66.7482 41.3582 66.7119 40.9763 66.6391 40.5036C66.5664 40.0308 66.4209 39.6066 66.2027 39.2308C65.9967 38.855 65.6936 38.6671 65.2936 38.6671C64.93 38.6671 64.639 38.8187 64.4208 39.1217C64.2027 39.4126 64.039 39.7823 63.9299 40.2308C63.8208 40.6672 63.7481 41.0975 63.7117 41.5218C63.6754 41.9461 63.6572 42.2855 63.6572 42.54Z" fill="#E0E4F2"/>
<path d="M84.5126 34.867C85.2156 34.867 85.652 35.1215 85.8217 35.6307C86.0036 36.1276 86.0945 36.6549 86.0945 37.2125C86.0945 37.2853 86.0945 37.3519 86.0945 37.4125C86.8339 36.661 87.6703 36.0488 88.6037 35.5761C89.537 35.1034 90.5795 34.867 91.7311 34.867C92.9917 34.867 94.0948 35.1337 95.0403 35.667C95.9858 36.2004 96.7676 36.9095 97.3858 37.7944C98.0162 38.6793 98.4889 39.6732 98.8041 40.7763C99.1192 41.8673 99.2768 42.9764 99.2768 44.1037C99.2768 45.9705 98.9071 47.7039 98.1677 49.3039C97.4283 50.8919 96.3555 52.1707 94.9494 53.1405C93.5554 54.1102 91.8644 54.5951 89.8764 54.5951C88.6158 54.5951 87.4763 54.3345 86.4581 53.8132V55.7769C86.4581 56.2012 86.4702 56.5224 86.4945 56.7406C86.5187 56.9709 86.5915 57.177 86.7127 57.3588C86.8339 57.5528 87.04 57.8073 87.3309 58.1225C87.5612 58.3649 87.7309 58.5831 87.84 58.7771C87.9491 58.971 88.0036 59.2437 88.0036 59.5953C88.0036 60.1165 87.8339 60.5226 87.4945 60.8135C87.1551 61.1044 86.7309 61.2499 86.2217 61.2499H78.476C77.9547 61.2499 77.5244 61.1105 77.185 60.8317C76.8456 60.5529 76.6759 60.1408 76.6759 59.5953C76.6759 59.1589 76.7547 58.8316 76.9123 58.6134C77.082 58.3952 77.2699 58.2013 77.4759 58.0316C77.682 57.8619 77.8638 57.6376 78.0214 57.3588C78.1911 57.08 78.276 56.6679 78.276 56.1224V42.2491C78.276 41.6915 78.185 41.2794 78.0032 41.0127C77.8214 40.7339 77.6093 40.5218 77.3668 40.3763C77.1244 40.2187 76.9123 40.043 76.7304 39.849C76.5486 39.6551 76.4577 39.352 76.4577 38.9399C76.4577 38.4793 76.6153 38.1095 76.9305 37.8307C77.2577 37.5519 77.6093 37.3338 77.985 37.1762L81.5852 35.5943C82.0458 35.3882 82.5186 35.2185 83.0034 35.0852C83.5004 34.9397 84.0035 34.867 84.5126 34.867ZM87.9127 39.5944C87.3915 39.5944 86.9066 39.7702 86.4581 40.1217V49.7221C86.6884 49.9403 86.943 50.1161 87.2218 50.2494C87.5006 50.3828 87.8097 50.4494 88.1491 50.4494C88.7431 50.4494 89.2158 50.2555 89.5673 49.8676C89.931 49.4676 90.2037 48.9706 90.3856 48.3766C90.5795 47.7827 90.7068 47.1826 90.7674 46.5766C90.828 45.9705 90.8583 45.4492 90.8583 45.0129C90.8583 44.5401 90.8219 44.0007 90.7492 43.3946C90.6765 42.7764 90.5371 42.1824 90.331 41.6127C90.1249 41.0309 89.828 40.5521 89.4401 40.1763C89.0522 39.7884 88.5431 39.5944 87.9127 39.5944Z" fill="#E0E4F2"/>
<path d="M108.223 56.7588C108.683 56.7588 109.047 56.5527 109.314 56.1406C109.58 55.7284 109.811 55.2739 110.005 54.7769L102.604 40.4854C102.386 40.0611 102.053 39.6914 101.604 39.3763C101.156 39.049 100.744 38.7096 100.368 38.358C99.992 38.0065 99.8041 37.5822 99.8041 37.0853C99.8041 36.5398 99.9738 36.1337 100.313 35.867C100.653 35.5882 101.083 35.4488 101.604 35.4488H111.332C111.853 35.4488 112.283 35.5822 112.623 35.8488C112.962 36.1155 113.132 36.5216 113.132 37.0671C113.132 37.5519 113.023 37.9095 112.805 38.1398C112.586 38.3702 112.332 38.5459 112.041 38.6671C111.762 38.7762 111.514 38.9035 111.296 39.049C111.077 39.1823 110.968 39.3944 110.968 39.6854C110.968 40.0248 111.023 40.3642 111.132 40.7036C111.241 41.043 111.374 41.3703 111.532 41.6854L114.005 46.6129L116.241 41.9582C116.496 41.4248 116.623 40.8551 116.623 40.249C116.623 39.7399 116.496 39.3884 116.241 39.1944C115.999 39.0005 115.714 38.849 115.387 38.7399C115.071 38.6308 114.787 38.4671 114.532 38.2489C114.29 38.0186 114.168 37.6186 114.168 37.0489C114.168 36.5034 114.338 36.1034 114.677 35.8488C115.029 35.5822 115.459 35.4488 115.968 35.4488H121.278C121.799 35.4488 122.223 35.5882 122.551 35.867C122.89 36.1337 123.06 36.5398 123.06 37.0853C123.06 37.5095 122.981 37.8247 122.823 38.0307C122.666 38.2247 122.441 38.455 122.15 38.7217C121.629 39.2066 121.235 39.6429 120.969 40.0308C120.702 40.4066 120.417 40.9157 120.114 41.5582L115.168 51.995C114.72 52.9405 114.241 53.9466 113.732 55.0133C113.235 56.0921 112.659 57.0982 112.005 58.0316C111.35 58.9771 110.568 59.7468 109.659 60.3408C108.75 60.9468 107.665 61.2499 106.404 61.2499C105.241 61.2499 104.186 61.0256 103.241 60.5771C102.307 60.1286 101.562 59.4741 101.004 58.6134C100.459 57.7528 100.186 56.7164 100.186 55.5042C100.186 54.5587 100.428 53.7526 100.913 53.0859C101.41 52.4192 102.168 52.0859 103.186 52.0859C103.853 52.0859 104.398 52.2435 104.823 52.5586C105.259 52.8738 105.616 53.2617 105.895 53.7223C106.186 54.1829 106.441 54.6436 106.659 55.1042C106.889 55.5769 107.12 55.9709 107.35 56.286C107.592 56.6012 107.883 56.7588 108.223 56.7588Z" fill="#E0E4F2"/>
<mask id="path-2-outside-1_457_889" maskUnits="userSpaceOnUse" x="-0.0595703" y="23.8406" width="125" height="37" fill="black">
<rect fill="white" x="-0.0595703" y="23.8406" width="125" height="37"/>
<path d="M11.6863 52.7145C11.1772 52.7145 10.6681 52.6902 10.159 52.6417C9.64988 52.5932 9.14683 52.5266 8.64984 52.4417C8.43165 52.4053 8.21346 52.369 7.99527 52.3326C7.77708 52.3084 7.55282 52.2963 7.32251 52.2963C6.8134 52.2963 6.31641 52.3872 5.83154 52.569C5.34667 52.7508 4.84968 52.8417 4.34057 52.8417C3.63751 52.8417 3.14658 52.6478 2.86778 52.2599C2.6011 51.872 2.4011 51.3689 2.26776 50.7507C2.11018 49.9992 1.95865 49.2416 1.81319 48.4779C1.67985 47.7142 1.54045 46.9566 1.39499 46.2051C1.35863 46.0596 1.34045 45.9081 1.34045 45.7505C1.34045 45.1808 1.54652 44.7384 1.95865 44.4232C2.38291 44.108 2.85566 43.9505 3.37689 43.9505C3.84964 43.9505 4.25572 44.108 4.59513 44.4232C4.94666 44.7384 5.29212 45.1323 5.63153 45.6051C5.97094 46.0778 6.35884 46.5506 6.79522 47.0233C7.24372 47.4839 7.80132 47.8718 8.46801 48.187C9.14683 48.5022 9.99535 48.6597 11.0136 48.6597C11.6197 48.6597 12.2318 48.5264 12.85 48.2597C13.4803 47.9809 13.7955 47.4718 13.7955 46.7324C13.7955 46.2233 13.644 45.8293 13.3409 45.5505C13.05 45.2596 12.6924 45.0353 12.2682 44.8778C11.8439 44.7081 11.4378 44.5687 11.0499 44.4596C9.77716 44.0838 8.54074 43.6595 7.34069 43.1868C6.14064 42.7019 5.05575 42.1019 4.08601 41.3867C3.1284 40.6715 2.36473 39.7806 1.79501 38.7139C1.22529 37.6472 0.94043 36.338 0.94043 34.7864C0.94043 32.9924 1.35863 31.4893 2.19503 30.2772C3.04355 29.0529 4.17087 28.1316 5.57699 27.5134C6.9831 26.8831 8.52256 26.5679 10.1954 26.5679C10.6923 26.5679 11.1833 26.5922 11.6681 26.6407C12.1651 26.6891 12.6561 26.774 13.1409 26.8952C13.541 26.9922 13.941 27.1013 14.341 27.2225C14.7531 27.3316 15.1653 27.3861 15.5774 27.3861C16.038 27.3861 16.4502 27.2286 16.8138 26.9134C17.1775 26.5982 17.6078 26.4406 18.1048 26.4406C18.6139 26.4406 19.02 26.5922 19.323 26.8952C19.6382 27.1861 19.8867 27.5498 20.0685 27.9862C20.2624 28.4104 20.42 28.8226 20.5412 29.2226L21.9958 33.8591C22.0807 34.1501 22.1231 34.4167 22.1231 34.6592C22.1231 35.2531 21.911 35.7259 21.4867 36.0774C21.0625 36.4289 20.5655 36.6047 19.9958 36.6047C19.4745 36.6047 19.0866 36.4714 18.8321 36.2047C18.5775 35.9259 18.323 35.5865 18.0684 35.1865C17.2563 33.9258 16.3471 32.8591 15.341 31.9863C14.3349 31.1136 13.0197 30.6772 11.3954 30.6772C10.8014 30.6772 10.256 30.8287 9.75898 31.1317C9.27411 31.4348 9.03167 31.9197 9.03167 32.5864C9.03167 33.1682 9.2135 33.6349 9.57715 33.9864C9.95292 34.3258 10.4014 34.5986 10.9227 34.8046C11.4439 34.9986 11.9288 35.1683 12.3773 35.3137C13.5531 35.6895 14.6865 36.1138 15.7774 36.5865C16.8684 37.0593 17.8442 37.6411 18.7048 38.332C19.5776 39.023 20.2624 39.8715 20.7594 40.8776C21.2685 41.8837 21.5231 43.0959 21.5231 44.5141C21.5231 45.8839 21.2443 47.0839 20.6867 48.1143C20.1412 49.1446 19.4018 49.9992 18.4684 50.678C17.5351 51.3568 16.4805 51.8659 15.3047 52.2053C14.1289 52.5448 12.9227 52.7145 11.6863 52.7145ZM32.869 24.8406C33.366 24.8406 33.7478 25.0103 34.0145 25.3497C34.2933 25.6891 34.4327 26.0952 34.4327 26.5679V46.7142C34.4327 47.0657 34.4509 47.4112 34.4873 47.7506C34.5236 48.0779 34.6752 48.3749 34.9418 48.6416C35.2691 48.9688 35.5479 49.2355 35.7782 49.4416C36.0207 49.6355 36.1419 49.9992 36.1419 50.5325C36.1419 51.078 35.9722 51.4902 35.6328 51.769C35.2934 52.0478 34.863 52.1872 34.3418 52.1872H26.3415C25.8202 52.1872 25.3899 52.0478 25.0505 51.769C24.7111 51.4902 24.5414 51.078 24.5414 50.5325C24.5414 50.0719 24.6263 49.7386 24.796 49.5325C24.9657 49.3143 25.1657 49.1264 25.396 48.9688C25.6263 48.8113 25.8263 48.5931 25.996 48.3143C26.1657 48.0234 26.2506 47.5688 26.2506 46.9506V32.2045C26.2506 31.6227 26.1536 31.1984 25.9596 30.9317C25.7657 30.6651 25.5354 30.4651 25.2687 30.3317C25.0142 30.1863 24.7899 30.0226 24.596 29.8408C24.402 29.6468 24.305 29.3377 24.305 28.9135C24.305 28.4286 24.4626 28.0528 24.7778 27.7862C25.0929 27.5195 25.4505 27.3073 25.8506 27.1498L29.9053 25.5679C30.3901 25.3739 30.875 25.2042 31.3599 25.0588C31.8447 24.9133 32.3478 24.8406 32.869 24.8406ZM55.9791 40.1685C55.9791 41.2473 55.6578 42.0655 55.0154 42.6231C54.3851 43.1807 53.5487 43.4595 52.5062 43.4595H45.1786C45.4574 44.502 45.9544 45.3808 46.6696 46.096C47.3848 46.7991 48.4151 47.1506 49.7606 47.1506C50.294 47.1506 50.8213 47.0415 51.3425 46.8233C51.8759 46.593 52.3729 46.3263 52.8335 46.0233C53.3062 45.7202 53.7184 45.4596 54.0699 45.2414C54.4214 45.0111 54.6881 44.8959 54.8699 44.8959C55.2215 44.8959 55.476 45.0232 55.6336 45.2778C55.7912 45.5202 55.87 45.799 55.87 46.1142C55.87 47.2173 55.6094 48.187 55.0881 49.0234C54.579 49.8477 53.9002 50.5325 53.0517 51.078C52.2153 51.6235 51.294 52.0296 50.2879 52.2963C49.2939 52.5751 48.3121 52.7145 47.3424 52.7145C45.4392 52.7145 43.7604 52.3205 42.3058 51.5326C40.8512 50.7447 39.7117 49.6416 38.8875 48.2234C38.0753 46.793 37.6692 45.1141 37.6692 43.1868C37.6692 41.1261 38.0632 39.3321 38.8511 37.8047C39.6511 36.2774 40.7966 35.0955 42.2876 34.2591C43.7786 33.4106 45.5665 32.9864 47.6515 32.9864C49.0939 32.9864 50.4455 33.2591 51.7062 33.8046C52.9789 34.3501 54.0093 35.1562 54.7972 36.2229C55.5851 37.2896 55.9791 38.6048 55.9791 40.1685ZM44.8513 40.6594C44.8513 40.7928 44.8513 40.9261 44.8513 41.0594H46.7423C47.2029 41.0594 47.5181 40.9564 47.6878 40.7503C47.8575 40.5321 47.9424 40.2048 47.9424 39.7685C47.9424 39.4775 47.906 39.0957 47.8333 38.623C47.7605 38.1502 47.6151 37.726 47.3969 37.3502C47.1908 36.9744 46.8878 36.7865 46.4878 36.7865C46.1241 36.7865 45.8332 36.938 45.615 37.2411C45.3968 37.532 45.2332 37.9017 45.1241 38.3502C45.015 38.7866 44.9422 39.2169 44.9059 39.6412C44.8695 40.0654 44.8513 40.4049 44.8513 40.6594ZM75.7253 40.1685C75.7253 41.2473 75.4041 42.0655 74.7617 42.6231C74.1313 43.1807 73.2949 43.4595 72.2525 43.4595H64.9249C65.2037 44.502 65.7007 45.3808 66.4159 46.096C67.131 46.7991 68.1614 47.1506 69.5069 47.1506C70.0403 47.1506 70.5676 47.0415 71.0888 46.8233C71.6221 46.593 72.1191 46.3263 72.5798 46.0233C73.0525 45.7202 73.4646 45.4596 73.8162 45.2414C74.1677 45.0111 74.4344 44.8959 74.6162 44.8959C74.9677 44.8959 75.2223 45.0232 75.3799 45.2778C75.5375 45.5202 75.6162 45.799 75.6162 46.1142C75.6162 47.2173 75.3556 48.187 74.8344 49.0234C74.3253 49.8477 73.6465 50.5325 72.7979 51.078C71.9615 51.6235 71.0403 52.0296 70.0342 52.2963C69.0402 52.5751 68.0584 52.7145 67.0886 52.7145C65.1855 52.7145 63.5067 52.3205 62.052 51.5326C60.5974 50.7447 59.458 49.6416 58.6337 48.2234C57.8216 46.793 57.4155 45.1141 57.4155 43.1868C57.4155 41.1261 57.8094 39.3321 58.5974 37.8047C59.3974 36.2774 60.5429 35.0955 62.0339 34.2591C63.5248 33.4106 65.3128 32.9864 67.3977 32.9864C68.8402 32.9864 70.1918 33.2591 71.4524 33.8046C72.7252 34.3501 73.7556 35.1562 74.5435 36.2229C75.3314 37.2896 75.7253 38.6048 75.7253 40.1685ZM64.5976 40.6594C64.5976 40.7928 64.5976 40.9261 64.5976 41.0594H66.4886C66.9492 41.0594 67.2644 40.9564 67.4341 40.7503C67.6038 40.5321 67.6886 40.2048 67.6886 39.7685C67.6886 39.4775 67.6523 39.0957 67.5796 38.623C67.5068 38.1502 67.3614 37.726 67.1432 37.3502C66.9371 36.9744 66.6341 36.7865 66.234 36.7865C65.8704 36.7865 65.5795 36.938 65.3613 37.2411C65.1431 37.532 64.9794 37.9017 64.8703 38.3502C64.7612 38.7866 64.6885 39.2169 64.6522 39.6412C64.6158 40.0654 64.5976 40.4049 64.5976 40.6594ZM85.453 32.9864C86.1561 32.9864 86.5925 33.2409 86.7622 33.75C86.944 34.247 87.0349 34.7743 87.0349 35.3319C87.0349 35.4046 87.0349 35.4713 87.0349 35.5319C87.7743 34.7804 88.6107 34.1682 89.5441 33.6955C90.4775 33.2227 91.5199 32.9864 92.6715 32.9864C93.9322 32.9864 95.0352 33.253 95.9807 33.7864C96.9262 34.3198 97.7081 35.0289 98.3263 35.9138C98.9566 36.7986 99.4294 37.7926 99.7445 38.8957C100.06 39.9867 100.217 41.0958 100.217 42.2231C100.217 44.0899 99.8475 45.8233 99.1081 47.4233C98.3687 49.0113 97.2959 50.2901 95.8898 51.2598C94.4958 52.2296 92.8048 52.7145 90.8169 52.7145C89.5562 52.7145 88.4168 52.4538 87.3985 51.9326V53.8963C87.3985 54.3206 87.4107 54.6418 87.4349 54.86C87.4592 55.0903 87.5319 55.2964 87.6531 55.4782C87.7743 55.6722 87.9804 55.9267 88.2713 56.2419C88.5016 56.4843 88.6713 56.7025 88.7804 56.8964C88.8895 57.0904 88.9441 57.3631 88.9441 57.7147C88.9441 58.2359 88.7744 58.642 88.435 58.9329C88.0955 59.2238 87.6713 59.3693 87.1622 59.3693H79.4164C78.8952 59.3693 78.4648 59.2299 78.1254 58.9511C77.786 58.6723 77.6163 58.2601 77.6163 57.7147C77.6163 57.2783 77.6951 56.951 77.8527 56.7328C78.0224 56.5146 78.2103 56.3207 78.4164 56.151C78.6224 55.9813 78.8043 55.757 78.9618 55.4782C79.1315 55.1994 79.2164 54.7873 79.2164 54.2418V40.3685C79.2164 39.8109 79.1255 39.3988 78.9436 39.1321C78.7618 38.8533 78.5497 38.6411 78.3073 38.4957C78.0648 38.3381 77.8527 38.1623 77.6709 37.9684C77.489 37.7744 77.3981 37.4714 77.3981 37.0593C77.3981 36.5986 77.5557 36.2289 77.8709 35.9501C78.1982 35.6713 78.5497 35.4531 78.9255 35.2956L82.5256 33.7137C82.9862 33.5076 83.459 33.3379 83.9439 33.2046C84.4408 33.0591 84.9439 32.9864 85.453 32.9864ZM88.8531 37.7138C88.3319 37.7138 87.847 37.8896 87.3985 38.2411V47.8415C87.6289 48.0597 87.8834 48.2355 88.1622 48.3688C88.441 48.5022 88.7501 48.5688 89.0895 48.5688C89.6835 48.5688 90.1562 48.3749 90.5078 47.987C90.8714 47.587 91.1442 47.09 91.326 46.496C91.5199 45.9021 91.6472 45.302 91.7078 44.6959C91.7684 44.0899 91.7987 43.5686 91.7987 43.1322C91.7987 42.6595 91.7624 42.1201 91.6896 41.514C91.6169 40.8958 91.4775 40.3018 91.2714 39.7321C91.0654 39.1503 90.7684 38.6714 90.3805 38.2957C89.9926 37.9078 89.4835 37.7138 88.8531 37.7138ZM109.163 54.8782C109.624 54.8782 109.987 54.6721 110.254 54.26C110.521 53.8478 110.751 53.3933 110.945 52.8963L103.545 38.6048C103.326 38.1805 102.993 37.8108 102.545 37.4956C102.096 37.1684 101.684 36.8289 101.308 36.4774C100.932 36.1259 100.745 35.7016 100.745 35.2046C100.745 34.6592 100.914 34.2531 101.254 33.9864C101.593 33.7076 102.023 33.5682 102.545 33.5682H112.272C112.794 33.5682 113.224 33.7015 113.563 33.9682C113.903 34.2349 114.072 34.641 114.072 35.1865C114.072 35.6713 113.963 36.0289 113.745 36.2592C113.527 36.4895 113.272 36.6653 112.981 36.7865C112.703 36.8956 112.454 37.0229 112.236 37.1684C112.018 37.3017 111.909 37.5138 111.909 37.8047C111.909 38.1442 111.963 38.4836 112.072 38.823C112.181 39.1624 112.315 39.4897 112.472 39.8048L114.945 44.7323L117.182 40.0776C117.436 39.5442 117.563 38.9745 117.563 38.3684C117.563 37.8593 117.436 37.5078 117.182 37.3138C116.939 37.1199 116.654 36.9683 116.327 36.8593C116.012 36.7502 115.727 36.5865 115.472 36.3683C115.23 36.138 115.109 35.738 115.109 35.1683C115.109 34.6228 115.278 34.2228 115.618 33.9682C115.969 33.7015 116.4 33.5682 116.909 33.5682H122.218C122.739 33.5682 123.164 33.7076 123.491 33.9864C123.83 34.2531 124 34.6592 124 35.2046C124 35.6289 123.921 35.9441 123.764 36.1501C123.606 36.3441 123.382 36.5744 123.091 36.8411C122.57 37.3259 122.176 37.7623 121.909 38.1502C121.642 38.526 121.358 39.0351 121.054 39.6776L116.109 50.1143C115.66 51.0598 115.182 52.0659 114.672 53.1327C114.175 54.2115 113.6 55.2176 112.945 56.151C112.29 57.0965 111.509 57.8662 110.6 58.4601C109.69 59.0662 108.605 59.3693 107.345 59.3693C106.181 59.3693 105.127 59.145 104.181 58.6965C103.248 58.248 102.502 57.5934 101.945 56.7328C101.399 55.8722 101.126 54.8358 101.126 53.6236C101.126 52.6781 101.369 51.872 101.854 51.2053C102.351 50.5386 103.108 50.2053 104.127 50.2053C104.793 50.2053 105.339 50.3628 105.763 50.678C106.199 50.9932 106.557 51.3811 106.836 51.8417C107.127 52.3023 107.381 52.7629 107.599 53.2236C107.83 53.6963 108.06 54.0903 108.29 54.4054C108.533 54.7206 108.824 54.8782 109.163 54.8782Z"/>
</mask>
<path d="M11.6863 52.7145C11.1772 52.7145 10.6681 52.6902 10.159 52.6417C9.64988 52.5932 9.14683 52.5266 8.64984 52.4417C8.43165 52.4053 8.21346 52.369 7.99527 52.3326C7.77708 52.3084 7.55282 52.2963 7.32251 52.2963C6.8134 52.2963 6.31641 52.3872 5.83154 52.569C5.34667 52.7508 4.84968 52.8417 4.34057 52.8417C3.63751 52.8417 3.14658 52.6478 2.86778 52.2599C2.6011 51.872 2.4011 51.3689 2.26776 50.7507C2.11018 49.9992 1.95865 49.2416 1.81319 48.4779C1.67985 47.7142 1.54045 46.9566 1.39499 46.2051C1.35863 46.0596 1.34045 45.9081 1.34045 45.7505C1.34045 45.1808 1.54652 44.7384 1.95865 44.4232C2.38291 44.108 2.85566 43.9505 3.37689 43.9505C3.84964 43.9505 4.25572 44.108 4.59513 44.4232C4.94666 44.7384 5.29212 45.1323 5.63153 45.6051C5.97094 46.0778 6.35884 46.5506 6.79522 47.0233C7.24372 47.4839 7.80132 47.8718 8.46801 48.187C9.14683 48.5022 9.99535 48.6597 11.0136 48.6597C11.6197 48.6597 12.2318 48.5264 12.85 48.2597C13.4803 47.9809 13.7955 47.4718 13.7955 46.7324C13.7955 46.2233 13.644 45.8293 13.3409 45.5505C13.05 45.2596 12.6924 45.0353 12.2682 44.8778C11.8439 44.7081 11.4378 44.5687 11.0499 44.4596C9.77716 44.0838 8.54074 43.6595 7.34069 43.1868C6.14064 42.7019 5.05575 42.1019 4.08601 41.3867C3.1284 40.6715 2.36473 39.7806 1.79501 38.7139C1.22529 37.6472 0.94043 36.338 0.94043 34.7864C0.94043 32.9924 1.35863 31.4893 2.19503 30.2772C3.04355 29.0529 4.17087 28.1316 5.57699 27.5134C6.9831 26.8831 8.52256 26.5679 10.1954 26.5679C10.6923 26.5679 11.1833 26.5922 11.6681 26.6407C12.1651 26.6891 12.6561 26.774 13.1409 26.8952C13.541 26.9922 13.941 27.1013 14.341 27.2225C14.7531 27.3316 15.1653 27.3861 15.5774 27.3861C16.038 27.3861 16.4502 27.2286 16.8138 26.9134C17.1775 26.5982 17.6078 26.4406 18.1048 26.4406C18.6139 26.4406 19.02 26.5922 19.323 26.8952C19.6382 27.1861 19.8867 27.5498 20.0685 27.9862C20.2624 28.4104 20.42 28.8226 20.5412 29.2226L21.9958 33.8591C22.0807 34.1501 22.1231 34.4167 22.1231 34.6592C22.1231 35.2531 21.911 35.7259 21.4867 36.0774C21.0625 36.4289 20.5655 36.6047 19.9958 36.6047C19.4745 36.6047 19.0866 36.4714 18.8321 36.2047C18.5775 35.9259 18.323 35.5865 18.0684 35.1865C17.2563 33.9258 16.3471 32.8591 15.341 31.9863C14.3349 31.1136 13.0197 30.6772 11.3954 30.6772C10.8014 30.6772 10.256 30.8287 9.75898 31.1317C9.27411 31.4348 9.03167 31.9197 9.03167 32.5864C9.03167 33.1682 9.2135 33.6349 9.57715 33.9864C9.95292 34.3258 10.4014 34.5986 10.9227 34.8046C11.4439 34.9986 11.9288 35.1683 12.3773 35.3137C13.5531 35.6895 14.6865 36.1138 15.7774 36.5865C16.8684 37.0593 17.8442 37.6411 18.7048 38.332C19.5776 39.023 20.2624 39.8715 20.7594 40.8776C21.2685 41.8837 21.5231 43.0959 21.5231 44.5141C21.5231 45.8839 21.2443 47.0839 20.6867 48.1143C20.1412 49.1446 19.4018 49.9992 18.4684 50.678C17.5351 51.3568 16.4805 51.8659 15.3047 52.2053C14.1289 52.5448 12.9227 52.7145 11.6863 52.7145ZM32.869 24.8406C33.366 24.8406 33.7478 25.0103 34.0145 25.3497C34.2933 25.6891 34.4327 26.0952 34.4327 26.5679V46.7142C34.4327 47.0657 34.4509 47.4112 34.4873 47.7506C34.5236 48.0779 34.6752 48.3749 34.9418 48.6416C35.2691 48.9688 35.5479 49.2355 35.7782 49.4416C36.0207 49.6355 36.1419 49.9992 36.1419 50.5325C36.1419 51.078 35.9722 51.4902 35.6328 51.769C35.2934 52.0478 34.863 52.1872 34.3418 52.1872H26.3415C25.8202 52.1872 25.3899 52.0478 25.0505 51.769C24.7111 51.4902 24.5414 51.078 24.5414 50.5325C24.5414 50.0719 24.6263 49.7386 24.796 49.5325C24.9657 49.3143 25.1657 49.1264 25.396 48.9688C25.6263 48.8113 25.8263 48.5931 25.996 48.3143C26.1657 48.0234 26.2506 47.5688 26.2506 46.9506V32.2045C26.2506 31.6227 26.1536 31.1984 25.9596 30.9317C25.7657 30.6651 25.5354 30.4651 25.2687 30.3317C25.0142 30.1863 24.7899 30.0226 24.596 29.8408C24.402 29.6468 24.305 29.3377 24.305 28.9135C24.305 28.4286 24.4626 28.0528 24.7778 27.7862C25.0929 27.5195 25.4505 27.3073 25.8506 27.1498L29.9053 25.5679C30.3901 25.3739 30.875 25.2042 31.3599 25.0588C31.8447 24.9133 32.3478 24.8406 32.869 24.8406ZM55.9791 40.1685C55.9791 41.2473 55.6578 42.0655 55.0154 42.6231C54.3851 43.1807 53.5487 43.4595 52.5062 43.4595H45.1786C45.4574 44.502 45.9544 45.3808 46.6696 46.096C47.3848 46.7991 48.4151 47.1506 49.7606 47.1506C50.294 47.1506 50.8213 47.0415 51.3425 46.8233C51.8759 46.593 52.3729 46.3263 52.8335 46.0233C53.3062 45.7202 53.7184 45.4596 54.0699 45.2414C54.4214 45.0111 54.6881 44.8959 54.8699 44.8959C55.2215 44.8959 55.476 45.0232 55.6336 45.2778C55.7912 45.5202 55.87 45.799 55.87 46.1142C55.87 47.2173 55.6094 48.187 55.0881 49.0234C54.579 49.8477 53.9002 50.5325 53.0517 51.078C52.2153 51.6235 51.294 52.0296 50.2879 52.2963C49.2939 52.5751 48.3121 52.7145 47.3424 52.7145C45.4392 52.7145 43.7604 52.3205 42.3058 51.5326C40.8512 50.7447 39.7117 49.6416 38.8875 48.2234C38.0753 46.793 37.6692 45.1141 37.6692 43.1868C37.6692 41.1261 38.0632 39.3321 38.8511 37.8047C39.6511 36.2774 40.7966 35.0955 42.2876 34.2591C43.7786 33.4106 45.5665 32.9864 47.6515 32.9864C49.0939 32.9864 50.4455 33.2591 51.7062 33.8046C52.9789 34.3501 54.0093 35.1562 54.7972 36.2229C55.5851 37.2896 55.9791 38.6048 55.9791 40.1685ZM44.8513 40.6594C44.8513 40.7928 44.8513 40.9261 44.8513 41.0594H46.7423C47.2029 41.0594 47.5181 40.9564 47.6878 40.7503C47.8575 40.5321 47.9424 40.2048 47.9424 39.7685C47.9424 39.4775 47.906 39.0957 47.8333 38.623C47.7605 38.1502 47.6151 37.726 47.3969 37.3502C47.1908 36.9744 46.8878 36.7865 46.4878 36.7865C46.1241 36.7865 45.8332 36.938 45.615 37.2411C45.3968 37.532 45.2332 37.9017 45.1241 38.3502C45.015 38.7866 44.9422 39.2169 44.9059 39.6412C44.8695 40.0654 44.8513 40.4049 44.8513 40.6594ZM75.7253 40.1685C75.7253 41.2473 75.4041 42.0655 74.7617 42.6231C74.1313 43.1807 73.2949 43.4595 72.2525 43.4595H64.9249C65.2037 44.502 65.7007 45.3808 66.4159 46.096C67.131 46.7991 68.1614 47.1506 69.5069 47.1506C70.0403 47.1506 70.5676 47.0415 71.0888 46.8233C71.6221 46.593 72.1191 46.3263 72.5798 46.0233C73.0525 45.7202 73.4646 45.4596 73.8162 45.2414C74.1677 45.0111 74.4344 44.8959 74.6162 44.8959C74.9677 44.8959 75.2223 45.0232 75.3799 45.2778C75.5375 45.5202 75.6162 45.799 75.6162 46.1142C75.6162 47.2173 75.3556 48.187 74.8344 49.0234C74.3253 49.8477 73.6465 50.5325 72.7979 51.078C71.9615 51.6235 71.0403 52.0296 70.0342 52.2963C69.0402 52.5751 68.0584 52.7145 67.0886 52.7145C65.1855 52.7145 63.5067 52.3205 62.052 51.5326C60.5974 50.7447 59.458 49.6416 58.6337 48.2234C57.8216 46.793 57.4155 45.1141 57.4155 43.1868C57.4155 41.1261 57.8094 39.3321 58.5974 37.8047C59.3974 36.2774 60.5429 35.0955 62.0339 34.2591C63.5248 33.4106 65.3128 32.9864 67.3977 32.9864C68.8402 32.9864 70.1918 33.2591 71.4524 33.8046C72.7252 34.3501 73.7556 35.1562 74.5435 36.2229C75.3314 37.2896 75.7253 38.6048 75.7253 40.1685ZM64.5976 40.6594C64.5976 40.7928 64.5976 40.9261 64.5976 41.0594H66.4886C66.9492 41.0594 67.2644 40.9564 67.4341 40.7503C67.6038 40.5321 67.6886 40.2048 67.6886 39.7685C67.6886 39.4775 67.6523 39.0957 67.5796 38.623C67.5068 38.1502 67.3614 37.726 67.1432 37.3502C66.9371 36.9744 66.6341 36.7865 66.234 36.7865C65.8704 36.7865 65.5795 36.938 65.3613 37.2411C65.1431 37.532 64.9794 37.9017 64.8703 38.3502C64.7612 38.7866 64.6885 39.2169 64.6522 39.6412C64.6158 40.0654 64.5976 40.4049 64.5976 40.6594ZM85.453 32.9864C86.1561 32.9864 86.5925 33.2409 86.7622 33.75C86.944 34.247 87.0349 34.7743 87.0349 35.3319C87.0349 35.4046 87.0349 35.4713 87.0349 35.5319C87.7743 34.7804 88.6107 34.1682 89.5441 33.6955C90.4775 33.2227 91.5199 32.9864 92.6715 32.9864C93.9322 32.9864 95.0352 33.253 95.9807 33.7864C96.9262 34.3198 97.7081 35.0289 98.3263 35.9138C98.9566 36.7986 99.4294 37.7926 99.7445 38.8957C100.06 39.9867 100.217 41.0958 100.217 42.2231C100.217 44.0899 99.8475 45.8233 99.1081 47.4233C98.3687 49.0113 97.2959 50.2901 95.8898 51.2598C94.4958 52.2296 92.8048 52.7145 90.8169 52.7145C89.5562 52.7145 88.4168 52.4538 87.3985 51.9326V53.8963C87.3985 54.3206 87.4107 54.6418 87.4349 54.86C87.4592 55.0903 87.5319 55.2964 87.6531 55.4782C87.7743 55.6722 87.9804 55.9267 88.2713 56.2419C88.5016 56.4843 88.6713 56.7025 88.7804 56.8964C88.8895 57.0904 88.9441 57.3631 88.9441 57.7147C88.9441 58.2359 88.7744 58.642 88.435 58.9329C88.0955 59.2238 87.6713 59.3693 87.1622 59.3693H79.4164C78.8952 59.3693 78.4648 59.2299 78.1254 58.9511C77.786 58.6723 77.6163 58.2601 77.6163 57.7147C77.6163 57.2783 77.6951 56.951 77.8527 56.7328C78.0224 56.5146 78.2103 56.3207 78.4164 56.151C78.6224 55.9813 78.8043 55.757 78.9618 55.4782C79.1315 55.1994 79.2164 54.7873 79.2164 54.2418V40.3685C79.2164 39.8109 79.1255 39.3988 78.9436 39.1321C78.7618 38.8533 78.5497 38.6411 78.3073 38.4957C78.0648 38.3381 77.8527 38.1623 77.6709 37.9684C77.489 37.7744 77.3981 37.4714 77.3981 37.0593C77.3981 36.5986 77.5557 36.2289 77.8709 35.9501C78.1982 35.6713 78.5497 35.4531 78.9255 35.2956L82.5256 33.7137C82.9862 33.5076 83.459 33.3379 83.9439 33.2046C84.4408 33.0591 84.9439 32.9864 85.453 32.9864ZM88.8531 37.7138C88.3319 37.7138 87.847 37.8896 87.3985 38.2411V47.8415C87.6289 48.0597 87.8834 48.2355 88.1622 48.3688C88.441 48.5022 88.7501 48.5688 89.0895 48.5688C89.6835 48.5688 90.1562 48.3749 90.5078 47.987C90.8714 47.587 91.1442 47.09 91.326 46.496C91.5199 45.9021 91.6472 45.302 91.7078 44.6959C91.7684 44.0899 91.7987 43.5686 91.7987 43.1322C91.7987 42.6595 91.7624 42.1201 91.6896 41.514C91.6169 40.8958 91.4775 40.3018 91.2714 39.7321C91.0654 39.1503 90.7684 38.6714 90.3805 38.2957C89.9926 37.9078 89.4835 37.7138 88.8531 37.7138ZM109.163 54.8782C109.624 54.8782 109.987 54.6721 110.254 54.26C110.521 53.8478 110.751 53.3933 110.945 52.8963L103.545 38.6048C103.326 38.1805 102.993 37.8108 102.545 37.4956C102.096 37.1684 101.684 36.8289 101.308 36.4774C100.932 36.1259 100.745 35.7016 100.745 35.2046C100.745 34.6592 100.914 34.2531 101.254 33.9864C101.593 33.7076 102.023 33.5682 102.545 33.5682H112.272C112.794 33.5682 113.224 33.7015 113.563 33.9682C113.903 34.2349 114.072 34.641 114.072 35.1865C114.072 35.6713 113.963 36.0289 113.745 36.2592C113.527 36.4895 113.272 36.6653 112.981 36.7865C112.703 36.8956 112.454 37.0229 112.236 37.1684C112.018 37.3017 111.909 37.5138 111.909 37.8047C111.909 38.1442 111.963 38.4836 112.072 38.823C112.181 39.1624 112.315 39.4897 112.472 39.8048L114.945 44.7323L117.182 40.0776C117.436 39.5442 117.563 38.9745 117.563 38.3684C117.563 37.8593 117.436 37.5078 117.182 37.3138C116.939 37.1199 116.654 36.9683 116.327 36.8593C116.012 36.7502 115.727 36.5865 115.472 36.3683C115.23 36.138 115.109 35.738 115.109 35.1683C115.109 34.6228 115.278 34.2228 115.618 33.9682C115.969 33.7015 116.4 33.5682 116.909 33.5682H122.218C122.739 33.5682 123.164 33.7076 123.491 33.9864C123.83 34.2531 124 34.6592 124 35.2046C124 35.6289 123.921 35.9441 123.764 36.1501C123.606 36.3441 123.382 36.5744 123.091 36.8411C122.57 37.3259 122.176 37.7623 121.909 38.1502C121.642 38.526 121.358 39.0351 121.054 39.6776L116.109 50.1143C115.66 51.0598 115.182 52.0659 114.672 53.1327C114.175 54.2115 113.6 55.2176 112.945 56.151C112.29 57.0965 111.509 57.8662 110.6 58.4601C109.69 59.0662 108.605 59.3693 107.345 59.3693C106.181 59.3693 105.127 59.145 104.181 58.6965C103.248 58.248 102.502 57.5934 101.945 56.7328C101.399 55.8722 101.126 54.8358 101.126 53.6236C101.126 52.6781 101.369 51.872 101.854 51.2053C102.351 50.5386 103.108 50.2053 104.127 50.2053C104.793 50.2053 105.339 50.3628 105.763 50.678C106.199 50.9932 106.557 51.3811 106.836 51.8417C107.127 52.3023 107.381 52.7629 107.599 53.2236C107.83 53.6963 108.06 54.0903 108.29 54.4054C108.533 54.7206 108.824 54.8782 109.163 54.8782Z" stroke="black" stroke-width="1.41053" mask="url(#path-2-outside-1_457_889)"/>
<mask id="path-3-inside-2_457_889" fill="white">
<path d="M56.4518 4.48497C58.6932 2.85795 61.3398 2.19782 63.8984 2.41851C63.1855 2.54321 62.4755 2.75222 61.7829 3.0551C57.1125 5.09779 54.9823 10.5402 57.0249 15.2106C59.0675 19.8812 64.5099 22.0114 69.1804 19.9687C71.3152 19.035 72.9162 17.3896 73.8336 15.4337C73.3394 18.1338 71.8502 20.6565 69.4535 22.3963C64.5076 25.9865 57.5872 24.8874 53.997 19.9415C50.4067 14.9956 51.5058 8.0752 56.4518 4.48497Z"/>
</mask>
<path d="M56.4518 4.48497C58.6932 2.85795 61.3398 2.19782 63.8984 2.41851C63.1855 2.54321 62.4755 2.75222 61.7829 3.0551C57.1125 5.09779 54.9823 10.5402 57.0249 15.2106C59.0675 19.8812 64.5099 22.0114 69.1804 19.9687C71.3152 19.035 72.9162 17.3896 73.8336 15.4337C73.3394 18.1338 71.8502 20.6565 69.4535 22.3963C64.5076 25.9865 57.5872 24.8874 53.997 19.9415C50.4067 14.9956 51.5058 8.0752 56.4518 4.48497Z" fill="#3B52A5"/>
<path d="M56.4518 4.48497L56.1756 4.10447L56.1756 4.10447L56.4518 4.48497ZM63.8984 2.41851L63.9794 2.88165C64.2121 2.84095 64.3784 2.63398 64.3681 2.39802C64.3578 2.16207 64.1741 1.97037 63.9388 1.95007L63.8984 2.41851ZM61.7829 3.0551L61.5945 2.62432L61.5945 2.62432L61.7829 3.0551ZM57.0249 15.2106L56.5941 15.399L56.5941 15.399L57.0249 15.2106ZM69.1804 19.9687L69.3688 20.3995L69.3688 20.3995L69.1804 19.9687ZM73.8336 15.4337L74.2961 15.5184C74.3386 15.2859 74.202 15.058 73.9769 14.9859C73.7519 14.9139 73.5083 15.0201 73.4079 15.2341L73.8336 15.4337ZM69.4535 22.3963L69.7297 22.7768L69.7297 22.7768L69.4535 22.3963ZM53.997 19.9415L53.6165 20.2177L53.6165 20.2177L53.997 19.9415ZM56.4518 4.48497L56.728 4.86546C58.8741 3.30764 61.4073 2.67557 63.858 2.88694L63.8984 2.41851L63.9388 1.95007C61.2723 1.72008 58.5123 2.40825 56.1756 4.10447L56.4518 4.48497ZM63.8984 2.41851L63.8174 1.95536C63.0688 2.08632 62.3226 2.30592 61.5945 2.62432L61.7829 3.0551L61.9713 3.48588C62.6284 3.19852 63.3023 3.0001 63.9794 2.88165L63.8984 2.41851ZM61.7829 3.0551L61.5945 2.62432C56.6862 4.77107 54.4474 10.4907 56.5941 15.399L57.0249 15.2106L57.4557 15.0222C55.5171 10.5897 57.5388 5.42451 61.9713 3.48588L61.7829 3.0551ZM57.0249 15.2106L56.5941 15.399C58.7408 20.3075 64.4604 22.5462 69.3688 20.3995L69.1804 19.9687L68.992 19.5379C64.5594 21.4765 59.3943 19.4548 57.4557 15.0222L57.0249 15.2106ZM69.1804 19.9687L69.3688 20.3995C71.6125 19.4181 73.2955 17.6881 74.2593 15.6334L73.8336 15.4337L73.4079 15.2341C72.5369 17.0911 71.018 18.6518 68.992 19.5379L69.1804 19.9687ZM73.8336 15.4337L73.3711 15.3491C72.8977 17.9355 71.472 20.3501 69.1773 22.0158L69.4535 22.3963L69.7297 22.7768C72.2285 20.9629 73.7811 18.3321 74.2961 15.5184L73.8336 15.4337ZM69.4535 22.3963L69.1773 22.0158C64.4416 25.4535 57.8152 24.401 54.3775 19.6653L53.997 19.9415L53.6165 20.2177C57.3593 25.3737 64.5737 26.5195 69.7297 22.7768L69.4535 22.3963ZM53.997 19.9415L54.3775 19.6653C50.9398 14.9295 51.9922 8.30315 56.728 4.86546L56.4518 4.48497L56.1756 4.10447C51.0195 7.84724 49.8737 15.0616 53.6165 20.2177L53.997 19.9415Z" fill="#3B52A5" mask="url(#path-3-inside-2_457_889)"/>
<path d="M72.2886 4.79455C72.8113 5.80941 73.6382 6.63617 74.653 7.15894C73.6382 7.68169 72.8113 8.50845 72.2886 9.52332C71.7658 8.50841 70.9392 7.68164 69.9242 7.15894C70.9392 6.63622 71.7658 5.80945 72.2886 4.79455Z" fill="#3B52A5" stroke="#3B52A5" stroke-width="0.470176"/>
<path d="M76.772 10.041C76.8979 10.7286 77.3039 11.3245 77.8803 11.6948C77.3065 12.062 76.8992 12.6503 76.7644 13.3314C76.6294 12.6499 76.2222 12.0612 75.6478 11.6942C76.2245 11.3239 76.6308 10.7288 76.7568 10.041L76.7637 9.99958L76.772 10.041Z" fill="#3B52A5" stroke="#3B52A5" stroke-width="0.470176"/>
</svg>
